<svg width="3118" height="4687" viewBox="0 0 3118 4687" fill="none" xmlns="http://www.w3.org/2000/svg">
<path d="M432 1910H2665C2804.22 2130.45 2853 2331.5 3021.5 2474.5C3190 2617.5 3113.5 2886 2962.5 3062.5C2811.5 3239 3189.5 3398.5 3071.5 3793.5C2953.5 4188.5 2665 3919.5 2665 4194C2665 4468.5 2665 4364.5 2425 4516C2185 4667.5 1744 4499 1542.5 4625C1341 4751 996.5 4667.5 744.5 4516C492.5 4364.5 531 4325.5 432 4194C333 4062.5 165 4127 72.5002 3872C-19.9998 3617 383.499 3222 240.5 3062.5C97.5011 2903 72.5002 2827.5 72.5002 2533C72.5002 2238.5 432 1910 432 1910Z" fill="#8AE393"/>
<path d="M2685.01 2776.43L452.012 2776.43C312.79 2555.98 264.012 2354.93 95.5122 2211.93C-72.9878 2068.93 3.51221 1800.43 154.512 1623.93C305.512 1447.43 -72.4878 1287.93 45.5122 892.927C163.512 497.927 452.012 766.927 452.012 492.427C452.012 217.927 452.012 321.927 692.012 170.427C932.012 18.9268 1373.01 187.427 1574.51 61.4268C1776.01 -64.5732 2120.51 18.9268 2372.51 170.427C2624.51 321.927 2586.01 360.927 2685.01 492.427C2784.01 623.927 2952.01 559.427 3044.51 814.427C3137.01 1069.43 2733.51 1464.43 2876.51 1623.93C3019.51 1783.43 3044.51 1858.93 3044.51 2153.43C3044.51 2447.93 2685.01 2776.43 2685.01 2776.43Z" fill="#8AE393"/>
</svg>
